<svg width="1904" height="391" viewBox="0 0 1904 391" fill="none" xmlns="http://www.w3.org/2000/svg">
<path d="M0 131.485C0 112.971 24.0835 105.799 34.2125 121.296L117.436 248.627C124.786 259.874 141.263 259.874 148.614 248.627L231.837 121.296C241.966 105.799 266.049 112.971 266.049 131.485V260.654C266.049 267.871 261.879 274.439 255.347 277.509L140.946 331.277C135.928 333.635 130.121 333.635 125.103 331.277L10.7018 277.509C4.16998 274.439 0 267.871 0 260.654V131.485Z" fill="#141414"/>
<path d="M496.578 259.515C496.578 278.029 472.495 285.202 462.366 269.704L379.143 142.373C371.792 131.127 355.315 131.127 347.965 142.373L264.741 269.704C254.612 285.202 230.529 278.029 230.529 259.515V130.347C230.529 123.129 234.699 116.562 241.231 113.492L355.632 59.7234C360.65 57.365 366.457 57.365 371.475 59.7234L485.876 113.492C492.408 116.562 496.578 123.129 496.578 130.347V259.515Z" fill="#141414"/>
<path d="M618.278 298L548.078 88H579.878L641.978 277.3H643.178L703.778 88H734.978L665.678 298H618.278ZM749.922 298V88H882.522V112.6H779.922V179.8H873.522V203.8H779.922V273.4H882.522V298H749.922ZM955.302 298V112.6H892.902V88H1047.4V112.6H985.002V298H955.302ZM1027.38 298L1097.58 88H1144.98L1214.28 298H1182.48L1121.88 108.1H1120.68L1058.88 298H1027.38ZM1062.18 234.1L1070.58 210.1H1169.28L1177.68 234.1H1062.18ZM1286.82 301.6C1274.62 301.6 1263.72 299.5 1254.12 295.3C1244.52 291.1 1236.72 285.3 1230.72 277.9C1224.92 270.3 1221.42 261.4 1220.22 251.2H1250.52C1251.72 255.8 1253.62 260.2 1256.22 264.4C1259.02 268.6 1262.92 272.1 1267.92 274.9C1273.12 277.5 1279.42 278.8 1286.82 278.8C1293.42 278.8 1298.82 277.9 1303.02 276.1C1307.42 274.1 1310.62 271.5 1312.62 268.3C1314.82 265.1 1315.92 261.6 1315.92 257.8C1315.92 253.2 1314.42 249.5 1311.42 246.7C1308.62 243.7 1304.52 241.2 1299.12 239.2C1293.92 237 1287.62 234.9 1280.22 232.9C1274.02 231.1 1267.72 229.2 1261.32 227.2C1254.92 225 1249.12 222.4 1243.92 219.4C1238.72 216.4 1234.52 212.5 1231.32 207.7C1228.12 202.7 1226.52 196.6 1226.52 189.4C1226.52 181.2 1228.72 173.8 1233.12 167.2C1237.72 160.6 1244.22 155.4 1252.62 151.6C1261.02 147.6 1271.02 145.6 1282.62 145.6C1299.02 145.6 1312.32 149.6 1322.52 157.6C1332.92 165.4 1339.02 176.7 1340.82 191.5H1311.72C1310.92 184.1 1307.92 178.4 1302.72 174.4C1297.72 170.4 1290.92 168.4 1282.32 168.4C1273.92 168.4 1267.42 170.2 1262.82 173.8C1258.42 177.4 1256.22 181.9 1256.22 187.3C1256.22 190.9 1257.42 193.9 1259.82 196.3C1262.22 198.7 1265.92 200.8 1270.92 202.6C1276.12 204.2 1282.52 206.2 1290.12 208.6C1299.72 211.4 1308.72 214.5 1317.12 217.9C1325.72 221.3 1332.62 225.8 1337.82 231.4C1343.22 236.8 1345.92 244.3 1345.92 253.9C1346.12 263.1 1343.72 271.3 1338.72 278.5C1333.92 285.7 1327.12 291.4 1318.32 295.6C1309.52 299.6 1299.02 301.6 1286.82 301.6ZM1423.05 301.6C1410.85 301.6 1399.95 299.5 1390.35 295.3C1380.75 291.1 1372.95 285.3 1366.95 277.9C1361.15 270.3 1357.65 261.4 1356.45 251.2H1386.75C1387.95 255.8 1389.85 260.2 1392.45 264.4C1395.25 268.6 1399.15 272.1 1404.15 274.9C1409.35 277.5 1415.65 278.8 1423.05 278.8C1429.65 278.8 1435.05 277.9 1439.25 276.1C1443.65 274.1 1446.85 271.5 1448.85 268.3C1451.05 265.1 1452.15 261.6 1452.15 257.8C1452.15 253.2 1450.65 249.5 1447.65 246.7C1444.85 243.7 1440.75 241.2 1435.35 239.2C1430.15 237 1423.85 234.9 1416.45 232.9C1410.25 231.1 1403.95 229.2 1397.55 227.2C1391.15 225 1385.35 222.4 1380.15 219.4C1374.95 216.4 1370.75 212.5 1367.55 207.7C1364.35 202.7 1362.75 196.6 1362.75 189.4C1362.75 181.2 1364.95 173.8 1369.35 167.2C1373.95 160.6 1380.45 155.4 1388.85 151.6C1397.25 147.6 1407.25 145.6 1418.85 145.6C1435.25 145.6 1448.55 149.6 1458.75 157.6C1469.15 165.4 1475.25 176.7 1477.05 191.5H1447.95C1447.15 184.1 1444.15 178.4 1438.95 174.4C1433.95 170.4 1427.15 168.4 1418.55 168.4C1410.15 168.4 1403.65 170.2 1399.05 173.8C1394.65 177.4 1392.45 181.9 1392.45 187.3C1392.45 190.9 1393.65 193.9 1396.05 196.3C1398.45 198.7 1402.15 200.8 1407.15 202.6C1412.35 204.2 1418.75 206.2 1426.35 208.6C1435.95 211.4 1444.95 214.5 1453.35 217.9C1461.95 221.3 1468.85 225.8 1474.05 231.4C1479.45 236.8 1482.15 244.3 1482.15 253.9C1482.35 263.1 1479.95 271.3 1474.95 278.5C1470.15 285.7 1463.35 291.4 1454.55 295.6C1445.75 299.6 1435.25 301.6 1423.05 301.6ZM1555.98 301.6C1544.38 301.6 1534.28 299.2 1525.68 294.4C1517.08 289.4 1510.38 282 1505.58 272.2C1500.98 262.4 1498.68 250 1498.68 235V149.2H1528.68V232C1528.68 246.4 1531.68 257.4 1537.68 265C1543.88 272.4 1552.88 276.1 1564.68 276.1C1572.88 276.1 1580.08 274.2 1586.28 270.4C1592.48 266.4 1597.38 260.7 1600.98 253.3C1604.78 245.7 1606.68 236.7 1606.68 226.3V149.2H1636.68V298H1610.58L1607.88 274.6H1606.68C1601.68 282.6 1594.98 289.1 1586.58 294.1C1578.18 299.1 1567.98 301.6 1555.98 301.6ZM1660.73 298V149.2H1686.83L1689.53 181.6H1690.73C1695.53 171 1700.33 163.2 1705.13 158.2C1710.13 153 1715.83 149.6 1722.23 148C1728.83 146.4 1736.63 145.6 1745.63 145.6V177.1H1737.83C1730.03 177.1 1723.13 178.1 1717.13 180.1C1711.33 181.9 1706.43 184.7 1702.43 188.5C1698.63 192.3 1695.73 197.2 1693.73 203.2C1691.73 209 1690.73 215.9 1690.73 223.9V298H1660.73ZM1824.97 301.6C1810.37 301.6 1797.47 298.4 1786.27 292C1775.07 285.4 1766.27 276.3 1759.87 264.7C1753.47 253.1 1750.27 239.5 1750.27 223.9C1750.27 208.3 1753.37 194.7 1759.57 183.1C1765.97 171.3 1774.77 162.1 1785.97 155.5C1797.37 148.9 1810.47 145.6 1825.27 145.6C1840.07 145.6 1852.77 148.9 1863.37 155.5C1873.97 161.9 1882.17 170.4 1887.97 181C1893.97 191.6 1896.97 203.4 1896.97 216.4C1896.97 218.4 1896.97 220.6 1896.97 223C1896.97 225.4 1896.77 227.9 1896.37 230.5H1772.17V209.5H1866.97C1866.37 196.7 1862.17 186.8 1854.37 179.8C1846.57 172.6 1836.77 169 1824.97 169C1816.97 169 1809.47 170.8 1802.47 174.4C1795.67 178 1790.17 183.4 1785.97 190.6C1781.77 197.8 1779.67 206.9 1779.67 217.9V226.3C1779.67 237.3 1781.77 246.6 1785.97 254.2C1790.17 261.6 1795.67 267.2 1802.47 271C1809.47 274.8 1816.87 276.7 1824.67 276.7C1834.27 276.7 1842.17 274.6 1848.37 270.4C1854.77 266 1859.47 260.1 1862.47 252.7H1892.77C1889.97 262.1 1885.47 270.5 1879.27 277.9C1873.07 285.1 1865.37 290.9 1856.17 295.3C1847.17 299.5 1836.77 301.6 1824.97 301.6Z" fill="#141414"/>
</svg>
