<svg width="500" height="500" viewBox="0 0 500 500" fill="none" xmlns="http://www.w3.org/2000/svg">
<path d="M2 185.485C2 166.971 26.0835 159.799 36.2125 175.296L119.436 302.627C126.786 313.874 143.263 313.874 150.614 302.627L233.837 175.296C243.966 159.799 268.049 166.971 268.049 185.485V314.654C268.049 321.871 263.879 328.439 257.347 331.509L142.946 385.277C137.928 387.635 132.121 387.635 127.103 385.277L12.7018 331.509C6.16998 328.439 2 321.871 2 314.654V185.485Z" fill="#141414"/>
<path d="M498.578 313.515C498.578 332.029 474.495 339.202 464.366 323.704L381.143 196.373C373.792 185.127 357.315 185.127 349.965 196.373L266.741 323.704C256.612 339.202 232.529 332.029 232.529 313.515V184.347C232.529 177.129 236.699 170.562 243.231 167.492L357.632 113.723C362.65 111.365 368.457 111.365 373.475 113.723L487.876 167.492C494.408 170.562 498.578 177.129 498.578 184.347V313.515Z" fill="#141414"/>
</svg>
